HIERARCHY
ROOT Hips
{
	OFFSET -13.091600 -28.302996 44.698402
	CHANNELS 6 Xposition Yposition Zposition Zrotation Xrotation Yrotation
	JOINT Chest
	{
		OFFSET -0.673000 0.623899 5.369202
		CHANNELS 6 Xposition Yposition Zposition Zrotation Xrotation Yrotation
		JOINT Chest2
		{
			OFFSET 0.000000 0.000000 4.415001
			CHANNELS 6 Xposition Yposition Zposition Zrotation Xrotation Yrotation
			JOINT Neck
			{
				OFFSET 0.000000 0.000002 10.273300
				CHANNELS 6 Xposition Yposition Zposition Zrotation Xrotation Yrotation
				JOINT Head
				{
					OFFSET 0.000000 0.000000 2.173897
					CHANNELS 6 Xposition Yposition Zposition Zrotation Xrotation Yrotation
					End Site
					{
						OFFSET 0.000000 0.000000 9.961800
					}
				}
			}
			JOINT LeftCollar
			{
				OFFSET 2.359900 -0.565201 5.928101
				CHANNELS 6 Xposition Yposition Zposition Zrotation Xrotation Yrotation
				JOINT LeftShoulder
				{
					OFFSET 5.443700 0.000000 0.000000
					CHANNELS 6 Xposition Yposition Zposition Zrotation Xrotation Yrotation
					JOINT LeftElbow
					{
						OFFSET 0.000000 0.000000 -10.615799
						CHANNELS 6 Xposition Yposition Zposition Zrotation Xrotation Yrotation
						JOINT LeftWrist
						{
							OFFSET 0.000000 -0.000002 -13.110302
							CHANNELS 6 Xposition Yposition Zposition Zrotation Xrotation Yrotation
							End Site
							{
								OFFSET 0.000000 0.000000 -2.173901
							}
						}
					}
				}
			}
			JOINT RightCollar
			{
				OFFSET -2.636600 -1.718800 6.889698
				CHANNELS 6 Xposition Yposition Zposition Zrotation Xrotation Yrotation
				JOINT RightShoulder
				{
					OFFSET -4.139101 0.000000 0.000000
					CHANNELS 6 Xposition Yposition Zposition Zrotation Xrotation Yrotation
					JOINT RightElbow
					{
						OFFSET 0.000000 0.000000 -10.471802
						CHANNELS 6 Xposition Yposition Zposition Zrotation Xrotation Yrotation
						JOINT RightWrist
						{
							OFFSET 0.000000 0.000000 -12.281898
							CHANNELS 6 Xposition Yposition Zposition Zrotation Xrotation Yrotation
							End Site
							{
								OFFSET 0.000000 -0.000002 -2.173901
							}
						}
					}
				}
			}
		}
	}
	JOINT LeftHip
	{
		OFFSET 2.273400 0.176701 -2.518002
		CHANNELS 6 Xposition Yposition Zposition Zrotation Xrotation Yrotation
		JOINT LeftKnee
		{
			OFFSET 0.000000 -0.000002 -20.456402
			CHANNELS 6 Xposition Yposition Zposition Zrotation Xrotation Yrotation
			JOINT LeftAnkle
			{
				OFFSET 0.000000 -0.000002 -16.635300
				CHANNELS 6 Xposition Yposition Zposition Zrotation Xrotation Yrotation
				End Site
				{
					OFFSET 0.000000 -8.812399 0.000001
				}
			}
		}
	}
	JOINT RightHip
	{
		OFFSET -1.914800 0.018101 -2.699299
		CHANNELS 6 Xposition Yposition Zposition Zrotation Xrotation Yrotation
		JOINT RightKnee
		{
			OFFSET 0.000000 -0.000002 -20.148901
			CHANNELS 6 Xposition Yposition Zposition Zrotation Xrotation Yrotation
			JOINT RightAnkle
			{
				OFFSET 0.000000 -0.000002 -16.838301
				CHANNELS 6 Xposition Yposition Zposition Zrotation Xrotation Yrotation
				End Site
				{
					OFFSET 0.000000 -8.328398 0.000001
				}
			}
		}
	}
}
MOTION
Frames: 10
Frame Time: 0.041667
-26.824600 -21.290701 18.998203 2856.325661 23.011235 -3.541477 -0.673002 0.623896 5.369210 22.008512 5.051729 2.011437 -0.000001 0.000000 4.415009 -17.846398 -6.286976 -1.989209 0.000004 -0.000003 10.273302 53.572988 -8.954451 4.399368 0.000001 -0.000003 2.173889 2.516511 -5.748551 5.432014 2.359901 -0.565202 5.928101 3.166526 3.017610 11.496950 5.443697 -0.000008 -0.000006 -3.868723 358.868985 -81.503657 -0.000002 -0.000006 -10.615788 955.558874 -164.275229 181.049846 -0.000007 0.000000 -13.110297 -2374.490239 183.690370 -620.831848 -2.636601 -1.718807 6.889705 187.647057 -186.906242 176.497662 -4.139094 0.000001 0.000000 -324.364072 -45.030723 115.666522 -0.000005 -0.000004 -10.471796 -12.960856 -30.132076 -373.058594 0.000005 -0.000008 -12.281888 225.408236 165.156392 268.383705 2.273398 0.176699 -2.518002 -419.445633 -153.321505 -108.234313 0.000004 -0.000004 -20.456398 1111.983538 193.543328 -22.557168 -0.000009 -0.000005 -16.635296 -650.935989 7.223138 31.802826 -1.914800 0.018102 -2.699298 15.650163 182.789946 48.801859 -0.000001 -0.000002 -20.148907 -739.942424 -196.741017 71.073678 -0.000000 0.000001 -16.838297 1042.891093 35.969849 -30.184781
-26.777897 -21.271498 18.991102 2856.503792 22.820982 -3.642647 -0.673003 0.623899 5.369207 21.835251 5.219728 2.011077 0.000001 -0.000002 4.415009 -17.837205 -6.342077 -1.999869 0.000002 0.000002 10.273304 53.543106 -8.988110 4.362407 -0.000002 -0.000005 2.173890 2.509493 -5.801369 5.393584 2.359899 -0.565200 5.928098 3.120424 3.041095 11.476284 5.443696 -0.000002 -0.000003 -3.811703 358.979607 -81.536941 0.000002 -0.000005 -10.615791 955.330582 -164.674618 180.805120 -0.000003 -0.000001 -13.110298 -2374.258996 183.582371 -620.533177 -2.636601 -1.718800 6.889702 187.510085 -186.898660 176.460738 -4.139096 0.000003 -0.000001 -324.497397 -44.565157 115.734058 0.000005 -0.000001 -10.471800 -13.335659 -30.100275 -373.033350 0.000007 0.000002 -12.281897 224.946475 165.140751 268.400808 2.273395 0.176699 -2.518002 -419.869323 -153.097734 -108.394207 0.000003 -0.000002 -20.456398 1112.159484 193.368283 -22.556970 -0.000006 -0.000001 -16.635298 -650.913749 7.232594 31.671000 -1.914800 0.018096 -2.699303 15.625818 182.965304 48.757053 0.000003 -0.000004 -20.148907 -739.864614 -196.599892 71.169417 -0.000005 0.000002 -16.838301 1042.679084 35.972158 -30.311666
-26.727896 -21.253296 18.983803 2856.640177 22.691673 -3.702896 -0.672998 0.623900 5.369206 21.709101 5.303878 2.004640 -0.000001 0.000001 4.415004 -17.813215 -6.393361 -2.008621 0.000005 0.000003 10.273304 53.501777 -9.001021 4.330443 0.000002 -0.000004 2.173901 2.504516 -5.855426 5.375006 2.359902 -0.565200 5.928099 3.013934 3.119159 11.479928 5.443697 -0.000005 0.000001 -3.745760 359.008239 -81.652050 -0.000006 -0.000001 -10.615790 955.129938 -165.114195 180.649952 -0.000004 0.000001 -13.110298 -2374.054200 183.396098 -620.279750 -2.636598 -1.718804 6.889698 187.363045 -186.923822 176.391206 -4.139105 0.000000 -0.000004 -324.702822 -43.959593 115.820173 0.000003 -0.000000 -10.471797 -13.883346 -30.022441 -373.038185 0.000000 0.000001 -12.281897 224.482773 165.134371 268.376164 2.273400 0.176706 -2.518002 -420.238863 -152.861041 -108.491681 0.000002 -0.000003 -20.456394 1112.386028 193.186983 -22.565463 -0.000004 -0.000006 -16.635302 -650.860693 7.255254 31.508264 -1.914797 0.018097 -2.699298 15.639277 183.090707 48.710064 0.000000 -0.000005 -20.148907 -739.736753 -196.693506 71.229762 -0.000001 -0.000003 -16.838305 1042.654058 36.024788 -30.316980
-26.675503 -21.234398 18.975002 2856.742466 22.627729 -3.712674 -0.673001 0.623895 5.369204 21.619792 5.311471 1.992585 -0.000000 -0.000005 4.415004 -17.824810 -6.438170 -2.020281 0.000000 0.000006 10.273300 53.459542 -9.045900 4.308954 0.000000 -0.000003 2.173903 2.493351 -5.870453 5.311655 2.359897 -0.565199 5.928097 2.933298 3.183297 11.484879 5.443697 -0.000009 -0.000003 -3.713934 358.898137 -81.867433 -0.000006 -0.000003 -10.615793 955.027430 -165.720142 180.551365 -0.000008 -0.000002 -13.110301 -2374.020541 183.236750 -620.098340 -2.636603 -1.718800 6.889700 187.254854 -186.976306 176.323847 -4.139098 -0.000001 0.000003 -325.115529 -43.139150 115.788154 0.000000 0.000001 -10.471799 -14.732781 -29.928977 -373.045398 0.000001 -0.000003 -12.281893 223.996027 165.177128 268.418347 2.273399 0.176698 -2.517997 -420.516879 -152.653499 -108.506352 -0.000005 -0.000005 -20.456398 1112.638362 193.021733 -22.562133 -0.000003 -0.000004 -16.635298 -650.754196 7.272591 31.339206 -1.914800 0.018095 -2.699298 15.715953 183.120759 48.687221 0.000001 -0.000006 -20.148905 -739.532066 -196.959324 71.278823 0.000001 -0.000004 -16.838303 1042.764325 36.124970 -30.206399
-26.620300 -21.217100 18.964703 2856.795797 22.575681 -3.715856 -0.673000 0.623898 5.369211 21.571097 5.324144 2.017884 -0.000001 -0.000003 4.415000 -17.883758 -6.474691 -2.036955 0.000005 -0.000002 10.273298 53.380162 -9.127015 4.234555 -0.000002 -0.000002 2.173896 2.549328 -5.861494 5.299139 2.359899 -0.565199 5.928102 2.945648 3.182586 11.431338 5.443697 -0.000004 0.000005 -3.692384 358.843932 -82.098054 -0.000005 -0.000003 -10.615791 955.055188 -166.351511 180.553974 -0.000011 -0.000001 -13.110300 -2374.084362 183.069000 -619.977036 -2.636606 -1.718805 6.889703 187.160284 -187.016085 176.287415 -4.139097 -0.000007 0.000003 -325.683801 -42.149838 115.608574 -0.000004 0.000002 -10.471799 -15.799648 -29.804733 -373.028842 -0.000000 0.000001 -12.281901 223.498461 165.257055 268.422992 2.273395 0.176704 -2.517997 -420.737686 -152.486159 -108.527833 0.000000 -0.000001 -20.456400 1112.901406 192.861292 -22.552197 -0.000008 -0.000006 -16.635294 -650.613221 7.280580 31.165631 -1.914800 0.018107 -2.699298 15.778393 183.208527 48.641291 0.000004 -0.000003 -20.148899 -739.398850 -197.303565 71.316628 0.000001 -0.000003 -16.838305 1042.930982 36.254542 -30.024156
-26.561897 -21.200796 18.952703 2856.790988 22.544045 -3.706401 -0.673003 0.623897 5.369213 21.574097 5.329915 2.065396 -0.000000 -0.000004 4.415008 -17.959569 -6.510887 -2.054362 0.000003 -0.000001 10.273302 53.330414 -9.267383 4.216485 0.000000 -0.000003 2.173897 2.559257 -5.791353 5.217807 2.359897 -0.565203 5.928103 3.528518 3.123228 11.310833 5.443696 -0.000005 -0.000001 -4.236264 359.024195 -82.362157 -0.000000 -0.000010 -10.615788 955.039014 -167.180150 180.551761 -0.000006 -0.000004 -13.110300 -2374.009612 182.999851 -619.940535 -2.636602 -1.718805 6.889699 187.031056 -187.010088 176.295570 -4.139098 -0.000002 0.000003 -326.135058 -41.361754 115.470195 -0.000001 0.000000 -10.471807 -16.640199 -29.631580 -373.017695 -0.000007 -0.000001 -12.281888 223.285236 165.400885 268.300212 2.273397 0.176708 -2.517995 -420.906692 -152.338545 -108.553043 0.000003 -0.000007 -20.456398 1113.167511 192.675661 -22.510203 -0.000010 -0.000004 -16.635296 -650.463886 7.237412 30.963583 -1.914801 0.018100 -2.699294 15.878305 183.300079 48.578942 0.000002 -0.000007 -20.148903 -739.288146 -197.646400 71.360444 0.000000 -0.000004 -16.838299 1043.092065 36.396213 -29.825595
-26.502598 -21.185398 18.941502 2856.751209 22.510080 -3.653640 -0.673002 0.623896 5.369209 21.609930 5.331090 2.100477 -0.000001 0.000002 4.415005 -17.826034 -6.563589 -1.986775 -0.000000 -0.000001 10.273300 53.043215 -9.483555 4.138523 -0.000001 -0.000004 2.173898 2.582752 -5.683432 5.133868 2.359895 -0.565205 5.928101 3.370279 3.101895 11.184022 5.443694 -0.000005 -0.000006 -4.315641 359.123123 -82.789891 -0.000001 -0.000001 -10.615788 955.151904 -168.162754 180.519414 -0.000005 -0.000002 -13.110305 -2374.031032 182.954280 -619.884364 -2.636607 -1.718803 6.889699 186.715556 -187.051957 176.204933 -4.139095 -0.000002 0.000005 -326.376082 -40.861019 115.550955 0.000002 -0.000002 -10.471794 -17.151590 -29.401844 -372.989882 0.000003 0.000006 -12.281908 223.262532 165.553977 268.102246 2.273394 0.176704 -2.518000 -421.081599 -152.114433 -108.600691 0.000004 -0.000001 -20.456404 1113.457657 192.446741 -22.438097 -0.000007 -0.000007 -16.635296 -650.498419 7.058177 30.731470 -1.914800 0.018098 -2.699300 16.013554 183.401726 48.519338 0.000000 -0.000002 -20.148909 -739.177443 -198.016063 71.378209 -0.000003 -0.000004 -16.838301 1043.238176 36.538889 -29.641303
-26.443193 -21.166901 18.930698 2856.736565 22.472164 -3.608221 -0.673003 0.623898 5.369203 21.619963 5.342641 2.145136 0.000003 -0.000003 4.415010 -17.918566 -6.723376 -2.026841 -0.000000 -0.000001 10.273294 53.055461 -9.577893 4.056791 -0.000001 -0.000005 2.173889 2.473637 -5.600393 5.006088 2.359897 -0.565204 5.928102 3.417632 3.191839 11.145129 5.443698 -0.000005 -0.000003 -4.394337 359.302784 -83.269500 -0.000003 -0.000000 -10.615790 955.157587 -169.184865 180.407822 -0.000001 -0.000005 -13.110303 -2373.951255 182.859122 -619.772130 -2.636603 -1.718805 6.889696 186.608677 -187.215362 176.145743 -4.139098 -0.000005 -0.000001 -326.424057 -40.685036 115.821922 0.000004 -0.000000 -10.471792 -17.126592 -29.193837 -372.867376 -0.000001 0.000005 -12.281893 223.234652 165.731972 267.813138 2.273398 0.176701 -2.518006 -421.268036 -151.918160 -108.651214 0.000005 -0.000003 -20.456396 1113.715128 192.209952 -22.310393 -0.000005 -0.000008 -16.635296 -650.398808 6.884314 30.563611 -1.914800 0.018098 -2.699302 16.131732 183.523454 48.540829 0.000005 -0.000006 -20.148907 -739.126189 -198.316878 71.481789 -0.000003 -0.000004 -16.838301 1043.280796 36.680305 -29.479438
-26.382498 -21.146696 18.920603 2856.709026 22.413660 -3.574466 -0.673005 0.623897 5.369207 21.639912 5.379363 2.197622 0.000002 -0.000002 4.415010 -17.980828 -6.785373 -2.052203 -0.000000 0.000006 10.273298 52.925821 -9.745001 4.037856 0.000003 -0.000006 2.173891 2.522801 -5.524911 4.931791 2.359899 -0.565199 5.928103 3.414625 3.204998 11.079662 5.443697 -0.000003 -0.000006 -4.459972 359.447011 -83.756137 -0.000001 -0.000002 -10.615794 954.715100 -170.259008 180.176087 -0.000005 0.000002 -13.110300 -2373.516527 182.704842 -619.539576 -2.636605 -1.718799 6.889703 186.556140 -187.284006 175.580422 -4.139101 -0.000001 -0.000003 -325.981761 -40.607906 116.834347 0.000000 -0.000000 -10.471794 -16.683345 -28.955153 -372.733996 -0.000005 -0.000003 -12.281897 223.349740 165.889681 267.430402 2.273394 0.176705 -2.518003 -421.462888 -151.731000 -108.724372 -0.000001 -0.000001 -20.456394 1113.941999 191.954585 -22.182383 -0.000007 -0.000005 -16.635294 -650.332965 6.722492 30.401384 -1.914802 0.018102 -2.699299 16.263693 183.680712 48.462200 0.000003 -0.000001 -20.148891 -739.070892 -198.631887 71.489398 -0.000000 0.000002 -16.838303 1043.235663 36.822994 -29.367553
-26.321098 -21.123695 18.911507 2856.669028 22.354379 -3.489123 -0.673004 0.623896 5.369213 21.679714 5.390356 2.178038 -0.000003 0.000000 4.415004 -18.014964 -6.856248 -2.074605 0.000001 0.000001 10.273305 52.803762 -9.868169 4.043233 -0.000004 -0.000002 2.173890 2.563437 -5.503063 4.896700 2.359900 -0.565199 5.928110 3.357546 3.254150 11.001691 5.443696 -0.000006 -0.000000 -4.511394 359.544245 -84.243150 -0.000002 -0.000001 -10.615790 953.694287 -171.403392 179.850123 -0.000005 0.000005 -13.110297 -2372.586310 182.507600 -619.202766 -2.636602 -1.718802 6.889707 186.348379 -187.300548 175.566980 -4.139096 0.000002 0.000008 -325.774451 -40.968373 117.238940 0.000001 0.000001 -10.471796 -15.862221 -28.787253 -372.461226 -0.000003 -0.000004 -12.281897 223.242342 165.595587 267.135010 2.273395 0.176702 -2.517998 -421.629763 -151.514742 -108.760162 0.000001 -0.000006 -20.456394 1114.147889 191.693262 -22.043269 -0.000006 -0.000006 -16.635300 -650.276848 6.564110 30.227009 -1.914803 0.018100 -2.699300 16.427973 183.822753 48.433387 0.000003 -0.000005 -20.148909 -738.999639 -199.014924 71.473190 -0.000002 0.000001 -16.838301 1043.138838 36.978088 -29.231727
